<svg xmlns="http://www.w3.org/2000/svg" version="1.0" width="510.000000pt" height="156.000000pt" viewBox="0 0 510.000000 156.000000" preserveAspectRatio="xMidYMid meet">
  <g transform="translate(0.000000,156.000000) scale(0.100000,-0.100000)" fill="#FFFFFF" stroke="none">
    <path d="M319 1507 c-97 -65 -71 -202 44 -231 l27 -6 0 -127 0 -126 -59 -111 c-32 -61 -116 -223 -186 -360 -126 -244 -127 -249 -122 -301 10 -101 63 -166 160 -199 41 -14 108 -16 451 -16 l403 0 64 32 c87 45 121 98 120 191 0 65 -2 69 -181 415 l-180 349 0 125 0 126 26 6 c59 15 104 71 104 128 0 37 -34 90 -71 110 -30 16 -61 18 -300 18 -260 0 -267 0 -300 -23z m569 -99 c4 -34 -29 -58 -80 -58 l-38 0 0 -177 0 -176 66 -126 c233 -442 297 -575 298 -616 1 -53 -24 -92 -77 -116 -39 -17 -71 -19 -427 -19 -231 0 -400 4 -422 10 -20 6 -50 26 -67 46 -40 45 -41 92 -3 165 16 30 80 153 142 274 62 121 132 258 157 305 l44 86 -3 169 -3 170 -25 3 c-78 10 -117 44 -89 78 10 12 53 14 268 12 l256 -3 3 -27z"/>
    <path d="M741 766 c-21 -26 -9 -51 24 -51 27 0 30 3 30 30 0 23 -5 31 -21 33 -11 2 -26 -4 -33 -12z"/>
    <path d="M812 618 c-26 -26 1 -65 38 -53 16 5 20 14 18 33 -3 30 -35 41 -56 20z"/>
    <path d="M332 502 c-27 -27 -112 -197 -112 -225 0 -13 9 -32 21 -43 20 -18 41 -19 384 -19 343 0 364 1 384 19 12 11 21 29 21 41 0 33 -105 228 -126 236 -11 4 -139 8 -286 8 -245 1 -270 -1 -286 -17z m472 -94 c8 -22 6 -32 -9 -48 -10 -11 -24 -20 -31 -20 -20 0 -44 29 -44 54 0 52 67 63 84 14z"/>
    <path d="M2998 851 c-1 -226 -2 -421 -2 -433 -1 -20 4 -23 39 -23 l40 0 0 430 0 430 -37 3 -38 3 -2 -410z"/>
    <path d="M3880 825 l0 -436 43 3 42 3 3 53 3 53 50 -45 c81 -73 191 -95 306 -61 64 19 138 84 178 157 28 49 30 61 30 153 0 89 -3 105 -27 150 -98 185 -338 233 -487 99 l-51 -45 -2 173 -3 173 -42 3 -43 3 0 -436z m462 90 c67 -48 102 -113 106 -199 3 -63 0 -78 -25 -126 -86 -164 -315 -173 -419 -17 -22 33 -29 56 -32 109 -7 113 37 195 130 242 46 24 63 27 125 24 61 -3 78 -8 115 -33z"/>
    <path d="M1310 795 l0 -405 115 0 115 0 0 108 0 108 35 34 c22 21 39 30 44 24 6 -5 50 -67 99 -139 l89 -130 136 -3 c76 -1 137 1 137 6 0 5 -8 20 -18 33 -50 64 -275 396 -280 411 -3 12 16 39 56 80 91 96 237 259 240 269 2 5 -55 9 -135 9 l-139 0 -129 -152 -130 -152 -3 152 -3 152 -114 0 -115 0 0 -405z"/>
    <path d="M2125 1189 c-3 -8 -4 -190 -3 -404 l3 -390 235 0 c230 1 236 1 303 28 123 48 177 98 229 212 19 42 23 67 23 160 0 99 -3 116 -27 167 -53 114 -117 170 -238 210 -56 18 -95 22 -292 26 -186 3 -229 2 -233 -9z m461 -220 c88 -44 127 -162 85 -254 -22 -50 -70 -91 -119 -104 -58 -15 -149 -24 -177 -17 l-25 6 0 194 c0 106 3 196 8 200 4 5 46 6 93 4 67 -3 98 -10 135 -29z"/>
    <path d="M3370 1021 c-78 -25 -146 -87 -181 -166 -33 -72 -33 -217 -2 -295 28 -68 82 -126 148 -156 104 -49 253 -22 319 57 14 16 27 29 30 29 3 0 6 -22 6 -50 l0 -50 40 0 40 0 0 309 0 309 -27 5 c-44 8 -53 -1 -53 -55 l0 -50 -39 40 c-22 23 -55 49 -73 58 -37 19 -167 29 -208 15z m196 -91 c69 -34 123 -129 124 -221 1 -146 -91 -249 -224 -249 -129 1 -218 98 -218 240 -1 104 49 196 126 231 55 25 138 25 192 -1z"/>
    <path d="M4704 1015 c-85 -32 -133 -116 -114 -198 15 -67 51 -93 197 -141 138 -46 181 -89 152 -152 -34 -72 -153 -82 -277 -24 l-66 31 -22 -28 -23 -28 27 -23 c66 -55 217 -86 309 -63 95 24 144 84 145 176 1 100 -43 138 -230 200 -92 30 -122 54 -122 97 0 58 72 97 159 85 30 -4 104 -32 141 -54 3 -2 14 11 24 28 19 31 19 32 0 47 -70 53 -219 77 -300 47z"/>
  </g>
</svg>
